<svg width="76" height="12" viewBox="0 0 76 12" fill="none" xmlns="http://www.w3.org/2000/svg">
<g opacity="0.4">
<path d="M4.21417 1.07349C5.77954 1.07349 7.08574 1.58491 8.13508 2.60775C9.18327 3.6306 9.70851 4.90916 9.70851 6.44458C9.70851 7.97884 9.18442 9.25855 8.13508 10.2814C7.08689 11.3042 5.77954 11.8157 4.21417 11.8157H0.332428V1.07464H4.21417V1.07349ZM4.21417 9.72851C5.18633 9.72851 5.97881 9.42212 6.59275 8.80818C7.20669 8.19424 7.51308 7.40637 7.51308 6.44458C7.51308 5.48278 7.20669 4.69491 6.59275 4.08098C5.97881 3.46704 5.18633 3.16065 4.21417 3.16065H2.52671V9.72851H4.21417Z" fill="#222222"/>
<path d="M16.1132 3.19177C17.4943 3.19177 18.5862 3.66749 19.389 4.61892C20.1919 5.57035 20.5374 6.75215 20.4246 8.16317H13.9489C14.0203 8.81742 14.2552 9.31963 14.6549 9.66749C15.0535 10.0153 15.5499 10.1893 16.1431 10.1893C16.5728 10.1893 16.9563 10.0948 17.2938 9.90592C17.6313 9.71702 17.8721 9.459 18.0149 9.13072H20.2863C19.9892 10.0822 19.4674 10.7986 18.721 11.2789C17.9746 11.7604 17.1199 12 16.1581 12C14.8484 12 13.7795 11.5853 12.9513 10.7571C12.1232 9.92896 11.7085 8.87962 11.7085 7.61143C11.7085 6.34324 12.1232 5.2893 12.9513 4.45075C13.7807 3.61105 14.8335 3.19177 16.1132 3.19177ZM16.0971 5.00248C15.5753 5.00248 15.1399 5.14301 14.7932 5.42406C14.4453 5.70512 14.2 6.08177 14.0571 6.55173H18.0932C17.97 6.08177 17.735 5.70512 17.3871 5.42406C17.0381 5.14301 16.6085 5.00248 16.0971 5.00248Z" fill="#222222"/>
<path d="M26.9572 1.07349C28.1229 1.07349 29.0513 1.39601 29.7424 2.03989C30.4335 2.68493 30.7779 3.56379 30.7779 4.67879C30.7779 5.80415 30.4301 6.69683 29.7344 7.35684C29.0386 8.01686 28.1125 8.34629 26.9572 8.34629H24.6397V11.8145H22.4454V1.07349H26.9572ZM26.8651 6.26028C27.418 6.26028 27.8373 6.12206 28.1229 5.84561C28.4097 5.56917 28.5526 5.19136 28.5526 4.70989C28.5526 4.2192 28.4097 3.83793 28.1229 3.5661C27.8361 3.29541 27.4168 3.15949 26.8651 3.15949H24.6397V6.25913H26.8651V6.26028Z" fill="#222222"/>
<path d="M34.0519 4.4496C34.9008 3.61105 35.9398 3.19177 37.1665 3.19177C38.3944 3.19177 39.4345 3.61105 40.2892 4.4496C41.1427 5.28815 41.57 6.33748 41.57 7.59531C41.57 8.8635 41.1485 9.91513 40.3042 10.7491C39.4598 11.583 38.414 12 37.1665 12C35.9283 12 34.8881 11.5807 34.0438 10.7422C33.1995 9.90362 32.778 8.85428 32.778 7.59646C32.778 6.33748 33.2018 5.28815 34.0519 4.4496ZM38.7238 5.92281C38.3091 5.49317 37.7897 5.27778 37.1665 5.27778C36.5422 5.27778 36.0227 5.49202 35.6092 5.92281C35.1945 6.35246 34.9872 6.90995 34.9872 7.59531C34.9872 8.28066 35.1945 8.83815 35.6092 9.2678C36.0239 9.69744 36.5422 9.91283 37.1665 9.91283C37.7908 9.91283 38.3091 9.69744 38.7238 9.2678C39.1385 8.83815 39.3458 8.28066 39.3458 7.59531C39.3458 6.90995 39.1385 6.35246 38.7238 5.92281Z" fill="#222222"/>
<path d="M51.595 1.07349H54.1268V11.8145H51.9325V4.11092L48.94 8.6377H48.7407L45.7643 4.11092V11.8145H43.5701V1.07349H46.0869L48.849 5.20173L51.595 1.07349Z" fill="#222222"/>
<path d="M60.5315 3.19177C61.9126 3.19177 63.0045 3.66749 63.8074 4.61892C64.6102 5.57035 64.9558 6.75215 64.8429 8.16317H58.3672C58.4386 8.81742 58.6736 9.31963 59.0733 9.66749C59.4718 10.0153 59.9683 10.1893 60.5615 10.1893C60.9911 10.1893 61.3747 10.0948 61.7122 9.90592C62.0497 9.71702 62.2904 9.459 62.4332 9.13072H64.7047C64.4075 10.0822 63.8857 10.7986 63.1393 11.2789C62.3929 11.7604 61.5382 12 60.5764 12C59.2668 12 58.1979 11.5853 57.3697 10.7571C56.5415 9.92896 56.1268 8.87962 56.1268 7.61143C56.1268 6.34324 56.5415 5.2893 57.3697 4.45075C58.199 3.61105 59.2518 3.19177 60.5315 3.19177ZM60.5154 5.00248C59.9936 5.00248 59.5582 5.14301 59.2115 5.42406C58.8636 5.70512 58.6183 6.08177 58.4743 6.55173H62.5104C62.3871 6.08177 62.1522 5.70512 61.8043 5.42406C61.4565 5.14301 61.0268 5.00248 60.5154 5.00248Z" fill="#222222"/>
<path d="M73.3706 0H75.5649V11.8157H73.3706V10.68C72.7255 11.56 71.8409 12 70.7156 12C69.6109 12 68.6929 11.5888 67.9615 10.7652C67.2301 9.94164 66.8638 8.88539 66.8638 7.59647C66.8638 6.30754 67.2289 5.2513 67.9615 4.42772C68.6929 3.60415 69.6063 3.19294 70.7006 3.19294C71.826 3.19294 72.7163 3.64792 73.3706 4.55903V0ZM71.2074 9.91284C71.8317 9.91284 72.3477 9.69745 72.7578 9.26781C73.1667 8.83816 73.3717 8.28067 73.3717 7.59532C73.3717 6.90996 73.1667 6.35247 72.7578 5.92282C72.3489 5.49318 71.8317 5.27779 71.2074 5.27779C70.5831 5.27779 70.0717 5.49203 69.6731 5.92282C69.2746 6.35247 69.0742 6.90996 69.0742 7.59532C69.0742 8.28067 69.2758 8.83816 69.6801 9.26781C70.0844 9.69745 70.5935 9.91284 71.2074 9.91284Z" fill="#222222"/>
</g>
</svg>
